<svg xmlns="http://www.w3.org/2000/svg" viewBox="0 0 150 60"><linearGradient id="a" gradientUnits="userSpaceOnUse" x1="3.736" y1="30" x2="53.737" y2="30"><stop offset=".25" stop-color="#872F92"/><stop offset=".75" stop-color="#552C7F"/></linearGradient><circle fill="url(#a)" cx="28.7" cy="30" r="25"/><path fill="#FFF" d="M26.9 38.7h3.6V21.2h-3.6v17.5zm13 0h3.6V27.9c0-3.9-3.2-7.1-7.1-7.1-1.1 0-2.2.2-3.1.6v3.3c.7-.3 1.5-.4 2.3-.4 2.4 0 4.4 2 4.4 4.4v10zm-22.4-7.3V21.3h-3.6v10.9c0 3.9 3.2 7.1 7.1 7.1 1.1 0 2.2-.2 3.1-.6v-3.3c-.7.3-1.5.4-2.3.4-2.3 0-4.3-1.9-4.3-4.4zm-1.8-12.9c1.3 0 2.3-1 2.3-2.3 0-1.3-1-2.3-2.3-2.3-1.3 0-2.3 1-2.3 2.3 0 1.2 1 2.3 2.3 2.3zm26.1 23c-1.3 0-2.3 1-2.3 2.3 0 1.3 1 2.3 2.3 2.3 1.3 0 2.3-1 2.3-2.3 0-1.2-1-2.3-2.3-2.3z"/><linearGradient id="b" gradientUnits="userSpaceOnUse" x1="60.266" y1="26.291" x2="146" y2="26.291"><stop offset=".25" stop-color="#552C7F"/><stop offset=".75" stop-color="#872F92"/></linearGradient><path fill="url(#b)" d="M105.6 38.7h3.6V21.2h-3.6v17.5zm-35.5-18c-1.2 0-2.4.3-3.4.7v3.4c.9-.6 1.9-.9 3.1-.9 3.2 0 5.8 2.7 5.8 6s-2.6 6-5.8 6c-3.2 0-5.8-2.7-5.8-6V13.3h-3.6v25.4H64v-2.1c1.6 1.7 3.8 2.7 6.2 2.7 4.9 0 8.8-4.2 8.8-9.3-.1-5.1-4.1-9.3-8.9-9.3zm26.2 9.4c0 3.3-2.6 6-5.8 6-3.2 0-5.8-2.7-5.8-6s2.6-6 5.8-6c1.1 0 2.2.3 3.1.9v-3.4c-1.1-.5-2.2-.7-3.5-.7-4.9 0-8.8 4.1-8.8 9.2s3.9 9.2 8.8 9.2c2.4 0 4.6-1 6.2-2.7v2.1h3.6V21.2h-3.6v8.9zm18.8-9.4c-1.1 0-2.2.2-3.1.6v3.3c.7-.3 1.5-.4 2.3-.4 2.4 0 4.4 2 4.4 4.4v10.2h3.6V27.9c-.1-4-3.3-7.2-7.2-7.2zm23.4 7.4l6.5-6.9h-4.8l-6.8 7.2v2.3h2.5l5.6 8h4.4l-7.4-10.6zm-11.1 10.6h3.6V13.3h-3.6v25.4z"/></svg>